<svg xmlns="http://www.w3.org/2000/svg" xmlns:xlink="http://www.w3.org/1999/xlink" id="Calque_1" width="595.28" height="142.143" x="0" y="0" enable-background="new 0 0 595.28 142.143" version="1.1" viewBox="0 0 595.28 142.143" xml:space="preserve"><switch><g><path fill="#41C0F0" d="M326.753,14.855c18.866,12.29,31.339,33.57,31.339,57.765c0,12.917-3.556,25.004-9.741,35.335 l-2.157-1.642c5.847-9.87,9.204-21.39,9.204-33.693c0-23.09-11.822-43.418-29.744-55.263L326.753,14.855z"/><path fill="#41C0F0" d="M256.407,133.215c-21.497-11.659-36.092-34.423-36.092-60.596c0-12.869,3.529-24.914,9.672-35.22 l2.532,1.017c-6.037,9.982-9.51,21.687-9.51,34.203c0,25.146,14.02,47.016,34.669,58.22L256.407,133.215z"/><path fill="#41C0F0" d="M259.761,126.933c-19.255-10.459-32.326-30.86-32.326-54.313c0-24.458,14.214-45.595,34.833-55.602 l-2.064-4.133c-22.133,10.765-37.387,33.468-37.387,59.734c0,25.255,14.102,47.216,34.861,58.438L259.761,126.933z"/><path fill="#41C0F0" d="M340.336,37.344c4.73,6.85,8.148,14.77,9.824,23.468c4.674,24.263-5.493,47.943-24.152,61.669 l-2.483-3.623c17.266-12.767,26.66-34.724,22.326-57.216c-1.513-7.859-4.558-15.034-8.766-21.276L340.336,37.344z"/><path fill="#41C0F0" d="M238.58,100.062c-4.431-8.158-6.948-17.506-6.948-27.442c0-22.907,13.377-42.688,32.747-51.959 l-2.26-3.783c-20.647,10.05-34.876,31.235-34.876,55.743c0,10.694,2.709,20.755,7.479,29.534L238.58,100.062z"/><path fill="#41C0F0" d="M311.358,19.256c-6.823-2.836-14.307-4.401-22.155-4.401c-24.773,0-45.903,15.595-54.111,37.502 l3.309,1.596c7.603-20.686,27.479-35.441,50.802-35.441c7.382,0,14.418,1.478,20.829,4.154L311.358,19.256z"/><path fill="#41C0F0" d="M266.719,125.845c6.911,2.923,14.509,4.54,22.484,4.54c23.435,0,43.61-13.955,52.669-34.008l-3.659-0.796 c-8.636,18.403-27.335,31.148-49.01,31.148c-7.598,0-14.831-1.566-21.393-4.394L266.719,125.845z"/><path fill="#41C0F0" d="M300.52,26.606c-3.627-0.889-7.417-1.36-11.316-1.36c-22.894,0-41.995,16.24-46.412,37.828l2.276,0.466 c4.201-20.529,22.365-35.971,44.135-35.971c3.621,0,7.141,0.427,10.515,1.233L300.52,26.606z"/><path fill="#41C0F0" d="M326.137,101.813c2.318-2.926,4.328-6.174,5.953-9.719c9.543-20.811,2.742-44.942-15.04-57.956 l-1.372,1.875c16.91,12.375,23.375,35.323,14.3,55.112c-1.509,3.291-3.364,6.313-5.504,9.043L326.137,101.813z"/><path fill="#41C0F0" d="M247.48,94.49c1.751,3.297,3.923,6.439,6.518,9.349c15.243,17.082,40.078,20.523,59.126,9.445 l-1.168-2.009c-18.115,10.533-41.73,7.261-56.224-8.983c-2.411-2.702-4.436-5.612-6.08-8.666L247.48,94.49z"/><path fill="#41C0F0" d="M308.359,13.514c20.822,6.824,37.351,24.54,41.57,47.611c4.399,24.059-5.78,47.408-24.262,60.961 l2.774,3.693c19.835-14.571,30.756-39.647,26.029-65.485c-4.545-24.842-22.366-43.909-44.807-51.212L308.359,13.514z"/><path fill="#F6F6F6" d="M58.91,83.728V39.393h8.313v55.418h-9.852L20.118,50.476v44.334h-8.313V39.393h9.853L58.91,83.728z"/><path fill="#F6F6F6" d="M110.863,50.168c2.771,0,5.13,0.976,7.081,2.925c1.95,1.951,2.925,4.31,2.925,7.082v16.472H83.77v8.158 c0,0.463,0.166,0.86,0.5,1.193c0.333,0.335,0.731,0.501,1.193,0.501h35.406v8.312H85.463c-2.771,0-5.132-0.974-7.081-2.924 c-1.952-1.95-2.926-4.31-2.926-7.082v-24.63c0-2.771,0.974-5.13,2.926-7.082c1.949-1.949,4.31-2.925,7.081-2.925H110.863z M83.77,68.333h28.786v-8.159c0-0.462-0.167-0.859-0.5-1.193c-0.334-0.333-0.731-0.5-1.193-0.5h-25.4 c-0.462,0-0.86,0.167-1.193,0.5c-0.334,0.334-0.5,0.731-0.5,1.193V68.333z"/><path fill="#F6F6F6" d="M165.973,50.168h8.312v34.636c0,2.771-0.975,5.132-2.924,7.082c-1.95,1.951-4.31,2.924-7.082,2.924h-25.4 c-2.771,0-5.132-0.974-7.082-2.924c-1.95-1.95-2.924-4.31-2.924-7.082V50.168h8.312v34.636c0,0.463,0.167,0.86,0.501,1.193 c0.333,0.335,0.731,0.501,1.193,0.501h25.4c0.462,0,0.859-0.166,1.193-0.501c0.334-0.333,0.501-0.73,0.501-1.193V50.168z"/><path fill="#F6F6F6" d="M192.296,50.168h24.938v8.313h-24.938c-0.462,0-0.86,0.167-1.193,0.5c-0.335,0.334-0.5,0.731-0.5,1.193 v34.636h-8.313V84.805v-24.63c0-2.771,0.974-5.13,2.925-7.082C187.165,51.144,189.524,50.168,192.296,50.168z"/><path fill="#F6F6F6" d="M399.803,50.168c2.771,0,5.13,0.976,7.081,2.925c1.949,1.951,2.925,4.31,2.925,7.082v34.636h-8.313V60.175 c0-0.462-0.167-0.859-0.5-1.193c-0.335-0.333-0.731-0.5-1.193-0.5h-25.4c-0.462,0-0.859,0.167-1.193,0.5 c-0.334,0.334-0.5,0.731-0.5,1.193v34.636h-8.313V50.168H399.803z"/><path fill="#F6F6F6" d="M453.22,50.168c2.77,0,5.13,0.976,7.081,2.925c1.949,1.951,2.925,4.31,2.925,7.082v34.636h-35.406 c-2.771,0-5.132-0.974-7.082-2.924c-1.95-1.95-2.925-4.31-2.925-7.082V68.333h37.101v-8.159c0-0.462-0.168-0.859-0.501-1.193 c-0.335-0.333-0.731-0.5-1.192-0.5h-35.407v-8.313H453.22z M454.913,86.499v-9.852h-28.788v8.158c0,0.463,0.167,0.86,0.501,1.193 c0.333,0.335,0.73,0.501,1.193,0.501H454.913z"/><path fill="#F6F6F6" d="M469.69,60.175v-24.63h8.313v49.26c0,0.463,0.166,0.86,0.501,1.193c0.333,0.335,0.73,0.501,1.192,0.501 h8.313v8.312h-8.313c-2.771,0-5.132-0.974-7.081-2.924c-1.951-1.95-2.925-4.31-2.925-7.082V60.175z"/><path fill="#F6F6F6" d="M493.703,35.544h8.313v8.312h-8.313V35.544z M493.703,94.811V50.168h8.313v44.642H493.703z"/><path fill="#F6F6F6" d="M536.421,58.481h-18.319v26.324c0,0.463,0.166,0.86,0.5,1.193c0.334,0.335,0.731,0.501,1.193,0.501h16.626 v8.312h-16.626c-2.771,0-5.132-0.974-7.081-2.924c-1.951-1.95-2.925-4.31-2.925-7.082v-24.63v-24.63h8.313v14.624h18.319V58.481z"/><path fill="#F6F6F6" d="M587.066,77.724v0.154v24.63c0,2.771-0.976,5.131-2.925,7.082c-1.951,1.949-4.312,2.924-7.082,2.924 h-27.554v-8.313h27.554c0.462,0,0.858-0.167,1.193-0.5c0.333-0.335,0.501-0.732,0.501-1.193v-7.697h-27.095 c-2.771,0-5.131-0.974-7.081-2.924c-1.949-1.95-2.924-4.31-2.924-7.082V50.322h8.313v34.482c0,0.463,0.165,0.86,0.5,1.193 c0.333,0.335,0.73,0.501,1.192,0.501h25.4c0.462,0,0.858-0.166,1.193-0.501c0.333-0.333,0.501-0.73,0.501-1.193V50.322h8.313 V77.724z"/><line x1="249.93" x2="328.308" y1="71.972" y2="71.972" fill="none" stroke="#41C0F0" stroke-miterlimit="10"/><line x1="289.119" x2="289.119" y1="32.783" y2="111.16" fill="none" stroke="#41C0F0" stroke-miterlimit="10"/><path fill="#F6F6F6" d="M264.204,65.168l17.961-17.96c1.959-1.96,4.318-2.939,7.076-2.939c2.759,0.001,5.116,0.979,7.075,2.939 l17.417,17.416c1.959,1.959,2.938,4.318,2.938,7.076c0,2.759-0.979,5.116-2.938,7.076l-17.961,17.961 c-1.959,1.959-4.318,2.939-7.075,2.938c-2.758,0.001-5.116-0.979-7.075-2.938l-17.417-17.417 c-1.959-1.959-2.938-4.315-2.938-7.076C261.265,69.487,262.245,67.127,264.204,65.168z M288.043,53.085l-17.96,17.962 c-0.327,0.326-0.491,0.726-0.49,1.197c0,0.473,0.164,0.87,0.491,1.196l17.416,17.417c0.327,0.327,0.725,0.49,1.197,0.49 c0.472,0,0.871-0.164,1.198-0.49l17.961-17.96c0.326-0.327,0.489-0.724,0.489-1.198c0-0.47-0.163-0.869-0.489-1.196 l-17.417-17.417c-0.327-0.328-0.726-0.49-1.196-0.491C288.768,52.596,288.37,52.759,288.043,53.085z"/></g></switch></svg>